<mxfile host="app.diagrams.net" modified="2023-10-21T05:34:33.733Z" agent="Mozilla/5.0 (Windows NT 10.0; Win64; x64) AppleWebKit/537.36 (KHTML, like Gecko) Chrome/118.0.0.0 Safari/537.36" version="21.8.2" etag="nwfgvQ6IURt_srzUgfvQ" type="github">
  <diagram name="Page-1" id="RN5dYma-KhGwDemLClEz">
    <mxGraphModel>
      <root>
        <mxCell id="0" />
        <mxCell id="1" parent="0" />
      </root>
    </mxGraphModel>
  </diagram>
</mxfile>
